# xmcd
#
# Track frame offsets: 
#        150
#        15230
#        33707
#        52010
#        70775
#        87867
#        107345
#        128087
#        149757
#        174585
#        192090
#        205790
#        210077
#        228990
#        235740
#
# Disc length: 3525 seconds
#
# Revision: 1
# Processed by: cddbd v1.5.2PL0 Copyright (c) Steve Scherf et al.
# Submitted via: ExactAudioCopy v0.99pb5
#
DISCID=c20dc30f
DTITLE=R. Kelly - R. Kelly
DYEAR=1995
DGENRE=Pop
TTITLE0=Intro - The Sermon
TTITLE1=Hump Bounce
TTITLE2=Not Gonna Hold On
TTITLE3=You Remind Me Of Something
TTITLE4=Step In My Room
TTITLE5=Baby, Baby, Baby, Baby, Baby...
TTITLE6=(You To Be) Be Happy
TTITLE7=Down Low (Nobody Has To Know)
TTITLE8=I Can't Sleep Baby (If I)
TTITLE9=Thank God It's Friday
TTITLE10=Love Is On The Way
TTITLE11=Heaven If You Hear Me
TTITLE12=Religious Love
TTITLE13=As I Look Into My Life
TTITLE14=Trade In My Life
EXTD=
EXTT0=
EXTT1=
EXTT2=
EXTT3=
EXTT4=
EXTT5=
EXTT6=
EXTT7=
EXTT8=
EXTT9=
EXTT10=
EXTT11=
EXTT12=
EXTT13=
EXTT14=
PLAYORDER=
